<svg width="32" height="32" viewBox="0 0 32 32" fill="none" xmlns="http://www.w3.org/2000/svg">
<path d="M16.0001 2.66675C8.64008 2.66675 2.66675 8.64008 2.66675 16.0001C2.66675 23.3601 8.64008 29.3334 16.0001 29.3334C23.3601 29.3334 29.3334 23.3601 29.3334 16.0001C29.3334 8.64008 23.3601 2.66675 16.0001 2.66675ZM9.42675 24.3734C10.0001 23.1734 13.4934 22.0001 16.0001 22.0001C18.5067 22.0001 22.0134 23.1734 22.5734 24.3734C20.7601 25.8134 18.4801 26.6667 16.0001 26.6667C13.5201 26.6667 11.2401 25.8134 9.42675 24.3734ZM24.4801 22.4401C22.5734 20.1201 17.9467 19.3334 16.0001 19.3334C14.0534 19.3334 9.42675 20.1201 7.52008 22.4401C6.16008 20.6534 5.33341 18.4267 5.33341 16.0001C5.33341 10.1201 10.1201 5.33341 16.0001 5.33341C21.8801 5.33341 26.6667 10.1201 26.6667 16.0001C26.6667 18.4267 25.8401 20.6534 24.4801 22.4401ZM16.0001 8.00008C13.4134 8.00008 11.3334 10.0801 11.3334 12.6667C11.3334 15.2534 13.4134 17.3334 16.0001 17.3334C18.5867 17.3334 20.6667 15.2534 20.6667 12.6667C20.6667 10.0801 18.5867 8.00008 16.0001 8.00008ZM16.0001 14.6667C14.8934 14.6667 14.0001 13.7734 14.0001 12.6667C14.0001 11.5601 14.8934 10.6667 16.0001 10.6667C17.1067 10.6667 18.0001 11.5601 18.0001 12.6667C18.0001 13.7734 17.1067 14.6667 16.0001 14.6667Z" fill="#1C2633"/>
</svg>
