<svg xmlns="http://www.w3.org/2000/svg" width="33" height="32" fill="none" viewBox="0 0 33 32"><path fill="#1D1D1B" d="M4.18202 31.6634C3.07362 31.6634 2.01055 31.2234 1.2264 30.4401C0.442238 29.6567 0.00113333 28.5941 0 27.4857L0 10.3086C0.00113159 9.38356 0.369116 8.4967 1.02324 7.84258C1.67736 7.18845 2.56422 6.82047 3.48929 6.81934H29.505C30.4288 6.82047 31.3143 7.18807 31.9673 7.84145C32.6203 8.49484 32.9874 9.38061 32.9879 10.3044V27.4857C32.9871 28.1134 32.8451 28.7328 32.5724 29.2982C32.2997 29.8635 31.9033 30.3603 31.4126 30.7516C30.9218 31.143 30.3493 31.4189 29.7375 31.559C29.1256 31.6991 28.4901 31.6997 27.878 31.5608C25.1199 30.9451 22.9797 29.6922 21.6905 27.939C21.5468 27.7305 21.3554 27.5593 21.1323 27.4396C20.9092 27.3199 20.6608 27.255 20.4077 27.2505H12.5739C12.3207 27.255 12.0723 27.3199 11.8492 27.4396C11.6261 27.5593 11.4347 27.7305 11.291 27.939C10.0082 29.6922 7.87015 30.9451 5.10352 31.5608C4.80098 31.6283 4.492 31.6627 4.18202 31.6634ZM3.48929 8.81627C3.09236 8.81627 2.71169 8.97395 2.43101 9.25462C2.15034 9.5353 1.99266 9.91597 1.99266 10.3129V27.4857C1.99032 27.8143 2.06285 28.139 2.20473 28.4354C2.34661 28.7318 2.55413 28.9919 2.81153 29.1961C3.07014 29.403 3.37208 29.5489 3.69487 29.6229C4.01766 29.697 4.35299 29.6972 4.67591 29.6237C6.26662 29.2688 8.42818 28.4863 9.69177 26.7673C10.019 26.3071 10.4511 25.9314 10.9522 25.6712C11.4533 25.411 12.0092 25.2737 12.5739 25.2707H20.4141C20.9786 25.2744 21.5342 25.412 22.0352 25.6721C22.5363 25.9323 22.9684 26.3076 23.2962 26.7673C24.5597 28.4777 26.717 29.2688 28.3099 29.6237C28.6331 29.6973 28.9688 29.697 29.2919 29.623C29.6151 29.5489 29.9174 29.403 30.1764 29.1961C30.4347 28.9923 30.6433 28.7324 30.7863 28.4361C30.9293 28.1397 31.0029 27.8147 31.0017 27.4857V10.3044C31.0017 9.90742 30.844 9.52675 30.5633 9.24607C30.2827 8.9654 29.902 8.80772 29.505 8.80772L3.48929 8.81627Z"/><path fill="#1D1D1B" d="M2.74513 8.92738V7.92891L2.30469 7.03521L2.48001 6.99459V6.96893L24.2239 0.484234C24.7564 0.325688 25.3186 0.293741 25.8656 0.39094C26.4126 0.48814 26.9293 0.711797 27.3746 1.04408C27.8198 1.37636 28.1813 1.80808 28.4302 2.3048C28.679 2.80153 28.8084 3.34953 28.8079 3.90511V7.8156H26.811V3.89869C26.8098 3.65506 26.7519 3.41506 26.6418 3.19768C26.5318 2.98031 26.3727 2.79154 26.1771 2.64632C25.9814 2.50111 25.7547 2.40343 25.5148 2.36104C25.2748 2.31864 25.0283 2.33269 24.7948 2.40206L3.12142 8.85896L2.98672 8.92524L2.74513 8.92738Z"/><path fill="#1D1D1B" d="M9.9893 21.8284C9.67175 21.8284 9.36721 21.7022 9.14267 21.4777C8.91814 21.2532 8.79199 20.9486 8.79199 20.6311V14.961C8.79199 14.6434 8.91814 14.3389 9.14267 14.1144C9.36721 13.8898 9.67175 13.7637 9.9893 13.7637C10.3068 13.7637 10.6114 13.8898 10.8359 14.1144C11.0605 14.3389 11.1866 14.6434 11.1866 14.961V20.6311C11.1866 20.9486 11.0605 21.2532 10.8359 21.4777C10.6114 21.7022 10.3068 21.8284 9.9893 21.8284Z"/><path fill="#1D1D1B" d="M12.8287 18.9932H7.15434C6.83679 18.9932 6.53225 18.8671 6.30771 18.6426C6.08318 18.418 5.95703 18.1135 5.95703 17.7959C5.95703 17.4784 6.08318 17.1739 6.30771 16.9493C6.53225 16.7248 6.83679 16.5986 7.15434 16.5986H12.8287C13.1463 16.5986 13.4508 16.7248 13.6753 16.9493C13.8999 17.1739 14.026 17.4784 14.026 17.7959C14.026 18.1135 13.8999 18.418 13.6753 18.6426C13.4508 18.8671 13.1463 18.9932 12.8287 18.9932Z"/><path fill="#1D1D1B" d="M22.6999 21.8284C21.9021 21.8296 21.1219 21.5942 20.4579 21.1519C19.7939 20.7096 19.2761 20.0803 18.9699 19.3436C18.6637 18.6069 18.583 17.7959 18.7378 17.0133C18.8927 16.2307 19.2762 15.5116 19.8399 14.947C20.4036 14.3824 21.1221 13.9977 21.9045 13.8416C22.6868 13.6855 23.4979 13.765 24.2351 14.07C24.9723 14.375 25.6025 14.8918 26.0458 15.5551C26.4892 16.2184 26.7258 16.9982 26.7258 17.796C26.7247 18.864 26.3004 19.888 25.5458 20.6438C24.7912 21.3996 23.7679 21.8256 22.6999 21.8284ZM22.6999 16.1583C22.376 16.1583 22.0593 16.2543 21.79 16.4343C21.5207 16.6142 21.3108 16.87 21.1868 17.1693C21.0629 17.4685 21.0304 17.7978 21.0936 18.1155C21.1568 18.4332 21.3128 18.725 21.5418 18.9541C21.7709 19.1831 22.0627 19.3391 22.3804 19.4023C22.6981 19.4655 23.0274 19.4331 23.3266 19.3091C23.6259 19.1851 23.8817 18.9752 24.0616 18.7059C24.2416 18.4366 24.3376 18.1199 24.3376 17.796C24.3382 17.5806 24.2963 17.3672 24.2142 17.168C24.1322 16.9688 24.0116 16.7877 23.8595 16.6352C23.7073 16.4827 23.5266 16.3616 23.3276 16.2791C23.1287 16.1965 22.9153 16.154 22.6999 16.154V16.1583Z"/></svg>