<svg xmlns="http://www.w3.org/2000/svg" width="80" height="80" fill="none" viewBox="0 0 80 80"><path fill="#1C2633" fill-rule="evenodd" d="M66.666 10H13.3327C9.66602 10 6.66602 13 6.66602 16.6667V63.3333C6.66602 67 9.66602 70 13.3327 70H66.666C70.3327 70 73.3327 67 73.3327 63.3333V16.6667C73.3327 13 70.3327 10 66.666 10ZM66.666 63.3333H13.3327V16.6667H66.666V63.3333Z" clip-rule="evenodd"/><path fill="#1C2633" fill-rule="evenodd" d="M64.6994 34.7333L59.966 30L49.3993 40.5667L44.6993 35.8333L39.9994 40.5333L49.3993 50L64.6994 34.7333Z" clip-rule="evenodd"/><path fill="#1C2633" d="M33.3327 23.3333H16.666V30H33.3327V23.3333Z"/><path fill="#1C2633" d="M33.3327 36.6667H16.666V43.3333H33.3327V36.6667Z"/><path fill="#1C2633" d="M33.3327 50H16.666V56.6667H33.3327V50Z"/></svg>