<svg xmlns="http://www.w3.org/2000/svg" width="81" height="80" fill="none" viewBox="0 0 81 80"><path fill="#1C2633" d="M32.6549 26.6665V46.6665L48.3216 56.3332L50.9883 52.3332L37.6549 44.3332V26.6665H32.6549Z"/><path fill="#1C2633" d="M59.0549 39.9998C59.2216 41.0998 59.3216 42.1998 59.3216 43.3332C59.3216 56.3332 48.9883 66.6665 35.9883 66.6665C22.9883 66.6665 12.6549 56.3332 12.6549 43.3332C12.6549 30.3332 22.9883 19.9998 35.9883 19.9998C38.3216 19.9998 40.5549 20.3332 42.6549 20.9665V14.0998C40.5216 13.5998 38.2883 13.3332 35.9883 13.3332C19.3216 13.3332 5.98828 26.6665 5.98828 43.3332C5.98828 59.9998 19.3216 73.3332 35.9883 73.3332C52.6549 73.3332 65.9883 59.9998 65.9883 43.3332C65.9883 42.1998 65.9216 41.0998 65.7883 39.9998H59.0549Z"/><path fill="#1C2633" d="M65.9883 16.6665V6.6665H59.3216V16.6665H49.3216V23.3332H59.3216V33.3332H65.9883V23.3332H75.9883V16.6665H65.9883Z"/></svg>