<svg width="36" height="37" viewBox="0 0 36 37" fill="none" xmlns="http://www.w3.org/2000/svg">
<rect y="0.851807" width="36" height="36" rx="18" fill="#0D0342"/>
<path d="M18.624 16.0439C18.624 15.0839 18.96 14.3159 19.632 13.7399C20.304 13.1319 21.152 12.8279 22.176 12.8279C23.456 12.8279 24.464 13.2279 25.2 14.0279C25.936 14.8279 26.304 15.8519 26.304 17.0999C26.304 18.4439 26.08 19.5799 25.632 20.5079C25.216 21.4039 24.688 22.1559 24.048 22.7639C23.44 23.3719 22.8 23.8519 22.128 24.2039C21.488 24.5239 20.928 24.7479 20.448 24.8759L18.768 22.0439C19.472 21.7879 20.08 21.4359 20.592 20.9879C21.104 20.5079 21.392 19.8999 21.456 19.1639C20.784 19.2279 20.144 18.9879 19.536 18.4439C18.928 17.8999 18.624 17.0999 18.624 16.0439ZM9.69598 16.0439C9.69598 15.0839 10.032 14.3159 10.704 13.7399C11.376 13.1319 12.224 12.8279 13.248 12.8279C14.528 12.8279 15.536 13.2279 16.272 14.0279C17.008 14.8279 17.376 15.8519 17.376 17.0999C17.376 18.4439 17.152 19.5799 16.704 20.5079C16.288 21.4039 15.76 22.1559 15.12 22.7639C14.512 23.3719 13.872 23.8519 13.2 24.2039C12.56 24.5239 12 24.7479 11.52 24.8759L9.83998 22.0439C10.544 21.7879 11.152 21.4359 11.664 20.9879C12.176 20.5079 12.464 19.8999 12.528 19.1639C11.856 19.2279 11.216 18.9879 10.608 18.4439C9.99998 17.8999 9.69598 17.0999 9.69598 16.0439Z" fill="white"/>
</svg>
